<svg class="img-fluid" id="outputsvg"
    xmlns="http://www.w3.org/2000/svg" style="transform: matrix(1, 0, 0, 1, 0, 0); transform-origin: 50% 50%; cursor: move; max-height: 371.08px;" width="1024" height="1024" viewBox="0 0 10240 10240">
    <g id="lIfI9Ea48xzWgUzPrDX5Fu" fill="rgb(24,17,13)" style="transform: none;">
        <g style="transform: none;">
            <path id="ppfIShz7O" d="M4780 7990 c-447 -38 -802 -111 -1072 -222 l-98 -39 -76 12 c-97 15 -264 6 -369 -20 -44 -12 -127 -44 -184 -72 -183 -90 -323 -252 -391 -451 -50 -145 -62 -228 -62 -404 l1 -161 -42 -13 c-70 -20 -182 -76 -271 -133 -197 -129 -356 -326 -452 -561 l-33 -80 -98 -22 c-218 -49 -376 -168 -463 -349 -49 -99 -68 -183 -120 -500 -22 -138 -58 -347 -81 -465 -50 -268 -51 -362 -4 -449 54 -98 148 -134 234 -89 72 37 97 79 181 304 43 115 82 208 86 207 5 -1 29 -10 54 -19 25 -9 68 -17 95 -18 37 -1 61 -9 94 -31 40 -27 53 -30 123 -30 l78 0 0 -35 c1 -61 25 -155 53 -202 30 -51 91 -88 146 -88 71 0 145 60 171 141 7 21 17 39 21 39 4 0 13 -15 19 -34 6 -19 30 -63 53 -98 l41 -63 -3 -135 c-11 -531 163 -1074 479 -1496 351 -467 914 -805 1555 -933 248 -49 325 -56 660 -55 282 0 337 2 465 22 594 93 1071 315 1449 678 247 236 411 485 529 804 74 200 116 387 137 618 l6 73 98 97 c106 106 152 181 185 303 l18 65 59 23 c164 63 318 224 397 412 115 276 62 669 -114 844 -30 30 -63 55 -74 55 -18 0 -20 7 -20 61 0 34 -6 75 -14 92 -8 18 -16 61 -18 97 -3 46 -12 81 -32 120 -16 30 -35 76 -42 102 -8 26 -30 68 -49 93 -19 25 -35 49 -35 53 0 10 -82 91 -108 106 -11 6 -39 25 -63 42 -49 34 -97 53 -209 84 -81 22 -285 29 -318 10 -13 -7 -154 -29 -164 -26 -1 1 -4 206 -8 456 -7 502 -7 504 -75 647 -84 180 -230 327 -397 402 -200 90 -559 171 -968 217 -169 19 -792 28 -960 14z m-1360 -415 c0 -3 -15 -21 -32 -41 -43 -46 -109 -154 -136 -224 -44 -110 -52 -179 -52 -462 l0 -267 -45 20 c-85 38 -197 60 -327 66 l-127 6 -6 61 c-8 70 8 232 31 321 83 321 323 515 647 524 26 0 47 -1 47 -4z m-445 -1230 c50 -13 120 -37 158 -54 l67 -30 1 -273 c1 -150 2 -293 3 -318 1 -25 1 -48 0 -51 -2 -3 -40 2 -86 11 l-83 16 -7 54 c-15 115 -123 421 -214 602 -19 37 -34 69 -34 71 0 9 112 -7 195 -28z m-298 -152 c82 -182 147 -367 168 -478 20 -101 19 -102 -12 -110 -108 -26 -270 -142 -354 -252 l-47 -62 -22 72 c-51 169 -165 315 -300 386 -36 19 -66 35 -68 36 -6 5 81 171 121 230 52 77 136 165 212 223 60 45 187 111 215 112 11 0 39 -51 87 -157z m5008 -199 c79 -27 155 -67 182 -95 23 -24 39 -60 88 -194 24 -67 39 -158 31 -189 -6 -25 -10 -26 -74 -26 -88 0 -154 -32 -233 -112 l-57 -59 -59 30 c-101 50 -163 64 -279 59 l-104 -4 -2 181 c-2 99 -2 218 0 264 3 93 10 106 72 117 19 3 60 13 90 21 30 9 71 20 90 24 53 12 199 2 255 -17z m-4885 -2260 c30 -8 71 -14 91 -14 34 0 38 -3 44 -32 23 -107 119 -194 332 -302 39 -19 74 -39 77 -44 3 -4 -6 -30 -19 -58 -37 -75 -47 -170 -43 -412 4 -208 5 -219 29 -272 55 -118 192 -195 465 -264 581 -145 1882 -153 2565 -16 238 48 403 115 483 196 76 77 77 87 74 420 l-3 291 -32 51 -32 51 52 32 c29 17 71 47 94 65 40 33 44 34 85 24 62 -14 195 -12 256 4 l52 13 0 -28 c0 -48 -46 -248 -79 -349 -44 -130 -135 -314 -219 -440 -324 -489 -908 -824 -1597 -918 -168 -23 -583 -22 -755 2 -522 72 -953 254 -1310 554 -363 304 -614 767 -685 1262 -8 58 -15 129 -15 159 0 47 2 52 18 46 9 -3 42 -13 72 -21z"></path>
            <path id="prfmsmAKP" d="M8965 4315 c-30 -29 -32 -78 -10 -200 8 -44 14 -132 15 -196 1 -331 -120 -630 -345 -854 -98 -98 -184 -160 -331 -237 -104 -55 -124 -76 -124 -128 1 -56 47 -97 99 -87 35 7 175 85 296 165 119 79 287 243 358 350 92 137 171 336 213 532 29 132 26 372 -5 515 -20 88 -30 116 -52 138 -35 35 -81 36 -114 2z"></path>
            <path id="p11znwvUR" d="M8559 4181 c-23 -19 -24 -23 -26 -198 -1 -143 -5 -193 -21 -254 -58 -218 -214 -409 -419 -512 -76 -39 -91 -97 -40 -154 31 -35 87 -31 165 13 226 124 405 354 473 609 24 87 32 287 16 398 -15 102 -85 149 -148 98z"></path>
            <path id="p46XWd8oc" d="M8168 4059 c-29 -17 -41 -50 -49 -137 -5 -58 -15 -100 -34 -138 -24 -49 -46 -72 -158 -165 -26 -23 -32 -34 -32 -69 0 -34 6 -47 28 -66 30 -26 75 -31 110 -13 55 28 132 98 173 156 64 89 86 157 92 280 l4 102 -30 31 c-32 31 -71 39 -104 19z"></path>
        </g>
    </g>
    <g id="l1dwa0m8vZ6f1D2eCpxMVse" fill="rgb(38,31,25)" style="transform: none;">
        <g style="transform: none;">
            <path id="pblH6zibA" d="M2880 5417 c0 -3 18 -43 40 -89 64 -135 89 -264 90 -459 0 -206 -59 -490 -134 -643 -46 -94 -123 -191 -132 -168 -3 6 -10 10 -15 6 -5 -3 -18 5 -29 18 -11 13 -19 19 -20 14 0 -6 -7 -1 -15 10 -14 18 -14 18 -15 -8 0 -16 -4 -28 -8 -28 -5 0 -19 -9 -32 -20 -13 -11 -34 -20 -47 -20 -14 0 -23 -6 -23 -15 0 -8 -9 -20 -20 -27 -11 -7 -20 -21 -20 -30 0 -10 -7 -18 -15 -18 -8 0 -15 -7 -15 -16 0 -14 -2 -14 -15 0 -8 8 -15 26 -15 39 0 14 -7 28 -16 31 -15 6 -16 -2 -10 -71 4 -43 9 -80 12 -82 9 -9 17 10 16 41 0 18 2 27 6 22 13 -21 53 -35 75 -28 31 10 80 6 89 -9 4 -7 12 -12 18 -12 6 0 15 -6 19 -14 5 -8 16 -11 25 -8 8 3 28 0 42 -8 28 -14 44 -12 44 6 0 5 9 20 21 32 11 12 23 34 26 48 4 21 14 28 55 39 85 21 161 104 211 230 14 36 35 85 46 110 54 122 86 363 78 589 -10 291 -70 443 -200 505 -50 24 -117 43 -117 33z"></path>
        </g>
    </g>
    <g id="l38PZ7Jh0yu2P3lBqiA8V1X" fill="rgb(132,25,29)" style="transform: none;">
        <g style="transform: none;">
            <path id="pfzIzHJEt" d="M4770 7825 c-370 -31 -759 -110 -978 -198 -213 -87 -382 -297 -413 -516 -6 -39 -8 -383 -5 -844 l4 -779 25 -26 c190 -202 231 -758 91 -1240 -6 -21 -5 -22 22 -11 47 17 194 23 270 10 38 -7 123 -30 190 -52 187 -61 227 -54 334 56 121 124 227 170 385 169 84 -1 111 -6 170 -29 329 -130 393 -133 628 -31 57 25 130 52 163 61 74 20 233 20 296 1 75 -22 168 -79 253 -156 137 -122 186 -133 340 -75 129 48 210 59 303 42 l72 -14 29 61 c61 129 59 76 63 1541 l3 1340 -28 75 c-62 162 -175 299 -311 375 -174 97 -564 189 -976 230 -219 22 -723 28 -930 10z m775 -1199 c33 -9 107 -39 165 -68 92 -45 116 -63 201 -147 104 -104 151 -171 209 -296 75 -161 110 -300 110 -433 -1 -149 -22 -199 -101 -240 -64 -33 -106 -25 -252 52 -242 128 -424 171 -692 163 -191 -5 -281 -23 -455 -93 -151 -60 -250 -56 -312 12 -68 76 -38 335 63 537 56 111 113 188 200 273 138 132 276 205 470 249 82 19 309 13 394 -9z m-1371 -1347 c15 -12 42 -51 61 -88 45 -90 75 -124 137 -155 68 -34 128 -34 196 0 61 30 102 74 141 153 33 64 44 75 84 85 36 8 85 -17 98 -51 10 -26 4 -72 -12 -103 -4 -8 -17 -36 -29 -62 -45 -99 -144 -183 -258 -218 -109 -34 -228 -21 -335 37 -104 57 -207 212 -215 324 -4 51 -2 58 23 77 35 28 75 28 109 1z m1661 -84 c29 -12 41 -27 69 -88 55 -122 126 -177 226 -177 85 0 145 42 206 143 51 83 97 99 151 53 23 -20 28 -32 28 -68 -1 -102 -105 -243 -217 -293 -235 -106 -524 50 -578 310 -13 64 -1 101 40 122 32 16 33 16 75 -2z"></path>
        </g>
    </g>
    <g id="l4HnBYaAIYoGg8g5rKZd06Y" fill="rgb(77,68,57)" style="transform: none;">
        <g style="transform: none;">
            <path id="p11m6ykXXy" d="M2569 4992 c-28 -18 -54 -46 -71 -78 -89 -164 -103 -535 -26 -657 33 -52 54 -67 91 -67 34 0 72 47 118 145 56 121 74 213 74 390 0 170 -14 225 -66 270 -39 32 -65 32 -120 -3z"></path>
        </g>
    </g>
    <g id="l1Cxg7l7wLbYCU1YbEzVby2" fill="rgb(87,76,65)" style="transform: none;">
        <g style="transform: none;">
            <path id="pUeMko38t" d="M2880 5417 c0 -3 18 -43 40 -89 111 -234 120 -540 25 -915 -29 -113 -88 -240 -144 -311 -37 -46 -40 -54 -27 -67 9 -10 17 -11 21 -5 10 16 32 12 39 -7 4 -9 1 -20 -6 -25 -7 -4 -8 -8 -3 -9 6 0 1 -4 -9 -8 -19 -7 -19 -8 2 -13 13 -4 22 -2 22 5 0 6 6 3 13 -7 11 -14 17 -15 42 -6 63 24 135 113 178 220 14 36 35 85 46 110 54 122 86 363 78 589 -10 291 -70 443 -200 505 -50 24 -117 43 -117 33z"></path>
            <path id="pU7mLDf2Y" d="M7370 5178 c38 -83 77 -238 91 -368 10 -93 7 -418 -5 -500 -5 -31 -14 -86 -21 -125 -24 -124 -129 -388 -193 -484 l-40 -61 27 0 c86 0 195 66 261 157 62 86 129 282 144 418 3 28 10 82 15 120 13 90 14 306 1 415 -20 177 -75 331 -144 408 -37 41 -110 82 -145 82 -19 0 -18 -4 9 -62z"></path>
            <path id="puPeFyH0C" d="M2441 4747 c-18 -75 -24 -247 -11 -347 11 -87 20 -111 62 -173 12 -19 87 78 83 106 -2 9 1 17 7 17 6 0 6 6 -2 15 -6 8 -9 19 -5 25 3 5 3 10 -2 10 -4 0 -7 15 -7 32 1 18 -3 38 -8 45 -5 7 -5 14 1 17 15 9 2 36 -18 36 -9 0 -12 3 -6 8 11 8 15 52 6 52 -12 0 -5 74 7 78 7 2 12 13 12 25 0 18 -2 19 -10 7 -8 -12 -10 -12 -15 2 -4 9 -13 14 -20 12 -8 -4 -17 7 -24 29 -18 52 -37 54 -50 4z"></path>
        </g>
    </g>
    <g id="l3dDDoI9QZ6HdwU6Jpj3f12" fill="rgb(167,39,45)" style="transform: none;">
        <g style="transform: none;">
            <path id="pTxWrpNgK" d="M4770 7825 c-370 -31 -759 -110 -978 -198 -213 -87 -382 -297 -413 -516 -6 -39 -8 -383 -5 -844 l4 -779 25 -26 c190 -202 231 -758 91 -1240 -6 -21 -5 -22 22 -11 47 17 194 23 270 10 38 -7 123 -30 190 -52 187 -61 227 -54 334 56 121 124 227 170 385 169 84 -1 111 -6 170 -29 329 -130 393 -133 628 -31 57 25 130 52 163 61 74 20 233 20 296 1 75 -22 168 -79 253 -156 141 -125 185 -133 375 -65 88 32 118 38 186 38 l82 1 6 65 c5 48 4 66 -6 72 -10 7 -10 9 0 9 19 0 14 18 -8 25 -11 3 -20 12 -20 20 0 8 -7 11 -20 8 -11 -3 -18 -9 -15 -13 9 -14 -22 -30 -69 -36 -25 -3 -46 -1 -46 4 0 4 -27 6 -61 4 l-61 -4 -48 50 c-58 60 -73 118 -46 171 36 70 100 77 172 20 27 -21 40 -26 43 -17 2 7 10 18 17 25 10 10 13 9 18 -4 5 -12 9 -14 18 -5 14 14 32 16 24 4 -3 -5 7 -21 22 -35 23 -22 38 -29 81 -36 3 -1 -4 -8 -15 -17 -13 -10 -15 -17 -7 -20 9 -4 10 -10 1 -24 -10 -15 -8 -23 7 -41 l20 -21 6 98 c4 66 5 30 5 -108 l-1 -206 28 -5 c25 -3 30 2 56 57 61 129 59 76 63 1541 l3 1340 -28 75 c-62 162 -175 299 -311 375 -174 97 -564 189 -976 230 -219 22 -723 28 -930 10z m476 -633 c24 -13 68 -60 83 -89 16 -32 14 -125 -5 -151 -37 -53 -119 -67 -174 -29 -49 32 -69 66 -79 125 l-8 53 37 19 c26 13 42 31 53 59 15 37 18 39 45 31 16 -4 38 -12 48 -18z m934 -20 c91 -66 70 -205 -38 -257 -32 -16 -38 -23 -31 -37 10 -19 12 -98 3 -123 -9 -22 -57 -45 -96 -45 -40 0 -97 36 -98 60 0 3 14 13 30 22 44 25 55 56 36 101 -18 45 -56 58 -98 34 -30 -17 -58 -13 -115 17 -74 38 -98 148 -45 207 23 25 38 32 78 36 41 4 59 0 106 -25 47 -25 59 -28 68 -17 6 7 30 23 53 35 48 24 106 21 147 -8z m-1647 -13 c41 -21 67 -53 78 -92 16 -61 4 -103 -48 -158 -43 -46 -45 -50 -34 -80 6 -18 11 -51 11 -73 0 -85 -89 -147 -179 -124 -52 13 -85 50 -110 123 l-20 60 -54 -3 c-101 -7 -172 53 -183 155 -14 131 126 200 267 130 l50 -24 19 27 c40 56 148 87 203 59z m2055 -454 c120 -48 125 -233 8 -289 -49 -23 -106 -20 -147 7 -36 24 -51 57 -25 57 23 0 46 41 46 83 0 29 -7 46 -29 67 l-28 29 21 20 c44 41 94 50 154 26z m-1043 -79 c33 -9 107 -39 165 -68 92 -45 116 -63 201 -147 104 -104 151 -171 209 -296 75 -161 110 -300 110 -433 -1 -149 -22 -199 -101 -240 -64 -33 -106 -25 -252 52 -242 128 -424 171 -692 163 -191 -5 -281 -23 -455 -93 -151 -60 -250 -56 -312 12 -68 76 -38 335 63 537 56 111 113 188 200 273 138 132 276 205 470 249 82 19 309 13 394 -9z m-1595 -31 c71 -37 67 -120 -9 -174 -36 -26 -77 -33 -123 -20 -33 8 -68 40 -68 61 0 4 18 17 40 28 48 24 74 61 68 95 -5 23 -2 25 29 25 19 0 47 -7 63 -15z m123 -573 c18 -10 45 -37 62 -61 25 -36 30 -52 30 -101 0 -65 -17 -93 -72 -116 -39 -17 -106 -18 -136 -3 -77 39 -127 136 -107 206 13 47 29 68 66 88 36 20 112 14 157 -13z m2554 -136 c79 -67 84 -185 9 -243 -17 -14 -22 -24 -15 -34 7 -12 9 -12 9 1 0 13 1 13 10 0 7 -11 5 -18 -5 -26 -22 -16 -18 -34 6 -34 16 0 19 -4 14 -20 -6 -18 -4 -19 19 -10 17 6 26 6 26 0 0 -6 -6 -10 -14 -10 -17 0 -30 -27 -27 -57 1 -13 -6 -26 -17 -32 -32 -17 -62 24 -60 84 2 108 -1 135 -17 135 -32 0 -96 42 -121 79 -66 101 -23 211 83 211 38 0 43 3 43 23 0 41 15 40 21 -1 3 -28 14 -48 36 -66z m-2453 -607 c15 -12 42 -51 61 -88 45 -90 75 -124 137 -155 68 -34 128 -34 196 0 61 30 102 74 141 153 33 64 44 75 84 85 36 8 85 -17 98 -51 10 -26 4 -72 -12 -103 -4 -8 -17 -36 -29 -62 -45 -99 -144 -183 -258 -218 -109 -34 -228 -21 -335 37 -104 57 -207 212 -215 324 -4 51 -2 58 23 77 35 28 75 28 109 1z m1661 -84 c29 -12 41 -27 69 -88 55 -122 126 -177 226 -177 85 0 145 42 206 143 51 83 97 99 151 53 23 -20 28 -32 28 -68 -1 -102 -105 -243 -217 -293 -235 -106 -524 50 -578 310 -13 64 -1 101 40 122 32 16 33 16 75 -2z m-640 -330 c31 -30 34 -93 7 -118 -46 -42 -130 -39 -165 5 -19 22 -18 22 20 35 49 17 76 44 76 77 0 34 29 35 62 1z m-1176 -85 c74 -37 111 -115 91 -190 -17 -62 -90 -99 -160 -80 -35 9 -85 50 -62 50 20 0 52 43 52 69 -1 37 -34 106 -61 124 -12 9 -21 18 -18 20 37 32 104 35 158 7z"></path>
        </g>
    </g>
    <g id="l5mS7GO9fVYfsSJB29M2TEM" fill="rgb(191,53,59)" style="transform: none;">
        <g style="transform: none;">
            <path id="pdCUv0USM" d="M4770 7825 c-370 -31 -759 -110 -978 -198 -213 -87 -382 -297 -413 -516 -6 -39 -8 -383 -5 -844 l4 -779 25 -26 c65 -70 124 -211 154 -373 24 -129 24 -462 -1 -601 -23 -129 -20 -133 89 -113 119 23 191 19 293 -15 49 -16 102 -37 118 -45 16 -8 43 -15 60 -15 23 0 34 -7 44 -25 13 -24 15 -24 23 -8 14 25 44 53 92 86 22 15 63 45 90 67 65 52 153 102 185 105 26 3 69 17 107 36 41 22 198 5 303 -31 106 -36 278 -62 355 -54 96 10 111 14 203 49 233 87 484 43 671 -119 98 -85 184 -106 267 -65 68 33 71 42 30 90 -44 51 -56 111 -32 158 36 69 100 77 171 21 45 -35 45 -36 45 -10 0 10 -13 34 -28 52 -28 32 -29 35 -28 151 1 66 5 121 11 125 6 4 10 13 11 20 1 6 2 19 3 27 0 8 8 15 16 15 12 0 14 4 5 19 -7 13 -7 22 0 26 5 3 10 11 10 16 0 6 -4 7 -10 4 -5 -3 -10 3 -10 14 0 12 -4 21 -10 21 -5 0 -10 9 -10 20 0 11 -4 20 -10 20 -5 0 -10 11 -10 24 0 14 -4 27 -8 30 -8 5 -7 39 3 116 9 75 14 87 35 93 11 3 20 12 20 21 0 13 -4 15 -19 7 -31 -17 -61 24 -59 84 2 108 -1 135 -17 135 -32 0 -96 42 -121 79 -66 101 -23 211 83 211 l42 0 -1 235 0 235 -43 0 c-27 0 -54 8 -76 23 -36 24 -51 57 -25 57 23 0 46 41 46 83 0 29 -7 46 -29 68 l-29 29 30 25 c16 14 47 28 69 31 24 4 36 11 32 17 -8 13 -9 59 -2 73 7 12 4 87 -3 99 -3 6 -2 37 4 70 5 33 7 73 4 88 -9 45 -75 144 -126 190 -58 52 -311 179 -400 202 -36 9 -108 29 -160 45 -52 15 -133 33 -179 40 -110 15 -187 40 -296 96 l-90 45 165 -5 c357 -11 834 -93 1082 -186 112 -42 225 -146 284 -262 58 -115 56 -53 51 -1588 -2 -773 -7 -1412 -11 -1421 -6 -13 0 -18 24 -21 29 -4 32 -2 59 56 61 129 59 76 63 1541 l3 1340 -28 75 c-62 162 -175 299 -311 375 -174 97 -564 189 -976 230 -219 22 -723 28 -930 10z m476 -633 c24 -13 68 -60 83 -89 16 -32 14 -125 -5 -151 -37 -53 -119 -67 -174 -29 -49 32 -69 66 -79 125 l-8 53 37 19 c26 13 42 31 53 59 15 37 18 39 45 31 16 -4 38 -12 48 -18z m934 -20 c91 -66 70 -205 -38 -257 -32 -16 -38 -23 -31 -37 10 -19 12 -98 3 -123 -9 -22 -57 -45 -96 -45 -40 0 -97 36 -98 60 0 3 14 13 30 22 44 25 55 56 36 101 -18 45 -56 58 -98 34 -30 -17 -58 -13 -115 17 -74 38 -98 148 -45 207 23 25 38 32 78 36 41 4 59 0 106 -25 47 -25 59 -28 68 -17 6 7 30 23 53 35 48 24 106 21 147 -8z m-1647 -13 c41 -21 67 -53 78 -92 16 -61 4 -103 -48 -158 -43 -46 -45 -50 -34 -80 6 -18 11 -51 11 -73 0 -85 -89 -147 -179 -124 -52 13 -85 50 -110 123 l-20 60 -54 -3 c-101 -7 -172 53 -183 155 -14 131 126 200 267 130 l50 -24 19 27 c40 56 148 87 203 59z m1012 -533 c33 -9 107 -39 165 -68 92 -45 116 -63 201 -147 104 -104 151 -171 209 -296 75 -161 110 -300 110 -433 -1 -149 -22 -199 -101 -240 -64 -33 -106 -25 -252 52 -242 128 -424 171 -692 163 -191 -5 -281 -23 -455 -93 -151 -60 -250 -56 -312 12 -68 76 -38 335 63 537 56 111 113 188 200 273 138 132 276 205 470 249 82 19 309 13 394 -9z m-1595 -31 c71 -37 67 -120 -9 -174 -36 -26 -77 -33 -123 -20 -33 8 -68 40 -68 61 0 4 18 17 40 28 48 24 74 61 68 95 -5 23 -2 25 29 25 19 0 47 -7 63 -15z m123 -573 c18 -10 45 -37 62 -61 25 -36 30 -52 30 -101 0 -65 -17 -93 -72 -116 -39 -17 -106 -18 -136 -3 -77 39 -127 136 -107 206 13 47 29 68 66 88 36 20 112 14 157 -13z m101 -743 c15 -12 42 -51 61 -88 45 -90 75 -124 137 -155 68 -34 128 -34 196 0 61 30 102 74 141 153 33 64 44 75 84 85 36 8 85 -17 98 -51 10 -26 4 -72 -12 -103 -4 -8 -17 -36 -29 -62 -45 -99 -144 -183 -258 -218 -109 -34 -228 -21 -335 37 -104 57 -207 212 -215 324 -4 51 -2 58 23 77 35 28 75 28 109 1z m1661 -84 c29 -12 41 -27 69 -88 55 -122 126 -177 226 -177 85 0 145 42 206 143 51 83 97 99 151 53 23 -20 28 -32 28 -68 -1 -102 -105 -243 -217 -293 -235 -106 -524 50 -578 310 -13 64 -1 101 40 122 32 16 33 16 75 -2z m-640 -330 c31 -30 34 -93 7 -118 -46 -42 -130 -39 -165 5 -19 22 -18 22 20 35 49 17 76 44 76 77 0 34 29 35 62 1z m-1176 -85 c74 -37 111 -115 91 -190 -17 -62 -90 -99 -160 -80 -35 9 -85 50 -62 50 20 0 52 43 52 69 -1 37 -34 106 -61 124 -12 9 -21 18 -18 20 37 32 104 35 158 7z"></path>
        </g>
    </g>
    <g id="l5zzOKQ76NLwPe8a8fzDxa4" fill="rgb(206,63,67)" style="transform: none;">
        <g style="transform: none;">
            <path id="pHCplWpSl" d="M4770 7825 c-370 -31 -759 -110 -978 -198 -213 -87 -382 -297 -413 -516 -6 -39 -8 -383 -5 -844 l4 -779 25 -26 c65 -70 124 -211 154 -373 24 -129 24 -462 -1 -601 -23 -129 -20 -133 89 -113 119 23 191 19 293 -15 49 -16 102 -37 118 -45 16 -8 43 -15 60 -15 23 0 34 -7 44 -25 13 -24 15 -24 23 -8 14 25 44 53 92 86 22 15 63 45 90 67 65 52 153 102 185 105 26 3 69 17 107 36 41 22 198 5 303 -31 106 -36 278 -62 355 -54 96 10 111 14 203 49 233 87 484 43 671 -119 98 -85 184 -106 267 -65 68 33 71 42 30 90 -62 72 -57 157 10 207 18 13 25 25 21 36 -4 9 -5 18 -4 21 1 2 -7 10 -17 18 -11 8 -16 19 -12 26 4 6 0 14 -9 17 -9 4 -14 12 -11 20 3 7 0 15 -7 18 -9 3 -8 8 3 15 8 6 11 11 7 11 -4 0 -3 8 2 18 6 12 5 23 -3 34 -11 15 -17 12 -61 -32 -218 -221 -619 -84 -685 235 -14 65 -1 102 44 123 23 12 34 12 64 0 32 -11 42 -24 74 -90 60 -125 128 -178 228 -178 87 0 143 40 213 152 41 64 71 79 121 59 27 -10 33 -9 46 6 9 10 25 23 35 29 11 6 22 22 23 35 2 13 11 28 19 34 8 6 16 31 19 55 7 72 13 87 34 93 11 3 20 12 20 21 0 13 -4 15 -19 7 -31 -17 -61 24 -59 84 2 108 -1 135 -17 135 -32 0 -96 42 -121 79 -66 101 -23 211 83 211 l42 0 -1 235 0 235 -43 0 c-27 0 -54 8 -76 23 -36 24 -51 57 -25 57 23 0 46 41 46 83 0 29 -7 46 -29 68 l-29 29 30 25 c16 14 47 28 69 31 24 4 36 11 32 17 -8 13 -9 59 -2 73 7 12 4 87 -3 99 -3 6 -2 37 4 70 5 33 7 73 4 88 -9 45 -75 144 -126 190 -58 52 -311 179 -400 202 -36 9 -108 29 -160 45 -52 15 -133 33 -179 40 -110 15 -187 40 -296 96 l-90 45 165 -5 c357 -11 834 -93 1082 -186 112 -42 225 -146 284 -262 58 -115 56 -53 51 -1588 -2 -773 -7 -1412 -11 -1421 -6 -13 0 -18 24 -21 29 -4 32 -2 59 56 61 129 59 76 63 1541 l3 1340 -28 75 c-62 162 -175 299 -311 375 -174 97 -564 189 -976 230 -219 22 -723 28 -930 10z m476 -633 c24 -13 68 -60 83 -89 16 -32 14 -125 -5 -151 -37 -53 -119 -67 -174 -29 -49 32 -69 66 -79 125 l-8 53 37 19 c26 13 42 31 53 59 15 37 18 39 45 31 16 -4 38 -12 48 -18z m934 -20 c91 -66 70 -205 -38 -257 -32 -16 -38 -23 -31 -37 10 -19 12 -98 3 -123 -9 -22 -57 -45 -96 -45 -40 0 -97 36 -98 60 0 3 14 13 30 22 44 25 55 56 36 101 -18 45 -56 58 -98 34 -30 -17 -58 -13 -115 17 -74 38 -98 148 -45 207 23 25 38 32 78 36 41 4 59 0 106 -25 47 -25 59 -28 68 -17 6 7 30 23 53 35 48 24 106 21 147 -8z m-1647 -13 c41 -21 67 -53 78 -92 16 -61 4 -103 -48 -158 -43 -46 -45 -50 -34 -80 6 -18 11 -51 11 -73 0 -85 -89 -147 -179 -124 -52 13 -85 50 -110 123 l-20 60 -54 -3 c-101 -7 -172 53 -183 155 -14 131 126 200 267 130 l50 -24 19 27 c40 56 148 87 203 59z m1012 -533 c33 -9 107 -39 165 -68 92 -45 116 -63 201 -147 104 -104 151 -171 209 -296 75 -161 110 -300 110 -433 -1 -149 -22 -199 -101 -240 -64 -33 -106 -25 -252 52 -242 128 -424 171 -692 163 -191 -5 -281 -23 -455 -93 -151 -60 -250 -56 -312 12 -68 76 -38 335 63 537 56 111 113 188 200 273 138 132 276 205 470 249 82 19 309 13 394 -9z m-1595 -31 c71 -37 67 -120 -9 -174 -36 -26 -77 -33 -123 -20 -33 8 -68 40 -68 61 0 4 18 17 40 28 48 24 74 61 68 95 -5 23 -2 25 29 25 19 0 47 -7 63 -15z m123 -573 c18 -10 45 -37 62 -61 25 -36 30 -52 30 -101 0 -65 -17 -93 -72 -116 -39 -17 -106 -18 -136 -3 -77 39 -127 136 -107 206 13 47 29 68 66 88 36 20 112 14 157 -13z m101 -743 c15 -12 42 -51 61 -88 45 -90 75 -124 137 -155 68 -34 128 -34 196 0 61 30 102 74 141 153 33 64 44 75 84 85 36 8 85 -17 98 -51 10 -26 4 -72 -12 -103 -4 -8 -17 -36 -29 -62 -45 -99 -144 -183 -258 -218 -109 -34 -228 -21 -335 37 -104 57 -207 212 -215 324 -4 51 -2 58 23 77 35 28 75 28 109 1z m1021 -414 c31 -30 34 -93 7 -118 -46 -42 -130 -39 -165 5 -19 22 -18 22 20 35 49 17 76 44 76 77 0 34 29 35 62 1z m-1176 -85 c74 -37 111 -115 91 -190 -17 -62 -90 -99 -160 -80 -35 9 -85 50 -62 50 20 0 52 43 52 69 -1 37 -34 106 -61 124 -12 9 -21 18 -18 20 37 32 104 35 158 7z"></path>
            <path id="pLARFajQZ" d="M5208 6480 c-154 -26 -302 -106 -418 -224 l-65 -66 30 -25 c56 -45 171 -95 256 -112 158 -30 338 2 479 84 75 44 242 199 238 222 -5 25 -138 89 -229 111 -89 21 -203 25 -291 10z"></path>
        </g>
    </g>
    <g id="l2wQBOC7qtSqqDNPX5nEFv5" fill="rgb(213,77,77)" style="transform: none;">
        <g style="transform: none;">
            <path id="pkCzVpzwD" d="M4770 7825 c-370 -31 -759 -110 -978 -198 -213 -87 -382 -297 -413 -516 -6 -39 -8 -383 -5 -843 l4 -778 34 -39 c29 -34 55 -81 96 -171 9 -19 10 70 7 365 -6 447 0 616 22 608 9 -4 11 0 7 11 -3 9 -1 16 5 16 8 0 8 6 -1 20 -7 10 -8 23 -4 27 5 4 11 2 13 -4 3 -7 10 -13 15 -13 6 0 8 3 5 6 -9 9 33 45 44 38 5 -3 9 0 9 6 0 7 6 8 18 2 9 -5 34 -8 54 -6 21 2 43 -2 50 -10 8 -7 34 -13 59 -13 40 -1 45 1 45 20 -1 12 5 22 12 22 19 0 14 19 -6 21 -9 0 -27 1 -40 2 -24 2 -72 43 -72 61 0 6 18 20 40 31 48 24 74 61 68 95 -5 23 -2 25 31 25 29 1 33 2 18 11 -9 5 -22 7 -27 4 -6 -3 -17 0 -25 9 -11 11 -12 16 -2 19 9 4 9 6 -1 6 -7 1 -26 16 -42 35 -17 18 -39 36 -50 39 -16 4 -20 0 -20 -22 0 -34 -57 -114 -76 -107 -8 3 -14 -1 -14 -10 0 -8 -11 -26 -24 -39 -21 -21 -36 -55 -35 -79 1 -5 -6 -13 -15 -18 -9 -5 -16 -16 -16 -23 0 -8 -4 -15 -10 -15 -5 0 -10 4 -10 10 0 5 -7 7 -15 4 -23 -9 -22 604 0 691 32 121 117 241 220 309 142 95 555 191 1005 235 574 56 1380 -24 1792 -179 112 -42 225 -146 284 -262 58 -115 56 -53 51 -1588 -2 -773 -7 -1412 -11 -1421 -6 -13 0 -18 24 -21 29 -4 32 -2 59 56 61 129 59 76 63 1541 l3 1340 -28 75 c-62 162 -175 299 -311 375 -174 97 -564 189 -976 230 -219 22 -723 28 -930 10z"></path>
            <path id="pnSPhdAXR" d="M5709 6980 c0 -14 -3 -34 -5 -45 -12 -52 -13 -135 -1 -135 7 -1 32 -21 57 -45 25 -25 49 -45 55 -45 6 0 19 -14 29 -30 9 -17 21 -28 26 -25 4 2 13 -2 19 -9 8 -10 9 -16 1 -21 -16 -10 -12 -25 6 -18 14 5 15 3 5 -16 -11 -20 -10 -21 21 -20 52 2 70 9 64 25 -3 8 -1 14 5 14 6 0 7 5 4 10 -3 6 1 10 9 10 9 0 16 7 16 15 0 8 3 14 8 13 13 -5 62 39 62 56 0 13 -4 15 -19 6 -43 -22 -116 -5 -143 34 -12 17 -10 20 22 38 44 25 55 56 36 101 -18 45 -56 58 -98 34 -41 -23 -112 0 -155 51 l-23 27 -1 -25z"></path>
            <path id="pouWTPerc" d="M6265 6710 c-9 -10 -30 -23 -46 -29 -24 -8 -29 -7 -29 6 0 14 -3 13 -21 -3 -16 -14 -23 -15 -26 -6 -3 6 -9 12 -14 12 -6 0 -7 -5 -4 -10 3 -6 -2 -13 -11 -17 -34 -13 -56 -44 -50 -69 8 -30 -4 -81 -14 -64 -6 9 -10 6 -15 -9 -3 -11 -14 -21 -23 -21 -10 0 -22 -12 -28 -28 -9 -24 -8 -31 5 -41 14 -10 12 -11 -10 -8 -14 2 -31 -3 -38 -10 -10 -11 -3 -24 37 -71 58 -68 100 -134 141 -222 17 -36 31 -57 31 -47 0 10 -11 40 -26 68 -28 56 -39 115 -24 124 13 8 13 25 0 25 -16 0 -51 40 -45 50 4 6 -3 35 -14 64 l-20 55 33 11 c18 6 40 8 49 4 10 -3 17 -1 17 6 0 7 8 9 19 5 10 -3 30 0 45 6 20 9 29 9 41 -1 11 -9 15 -9 15 -1 0 8 8 10 20 6 10 -3 38 -1 60 6 37 11 46 10 77 -6 l35 -19 19 23 c30 36 25 96 -10 131 -20 20 -25 32 -18 39 6 6 7 14 2 18 -4 5 -10 2 -12 -4 -7 -20 -23 -15 -23 7 0 21 -20 29 -20 8 -1 -9 -4 -8 -13 2 -7 9 -19 15 -27 15 -8 -1 -22 2 -31 7 -11 5 -22 1 -34 -12z"></path>
        </g>
    </g>
    <g id="l33kKFA6VKYrcBg1kgoFQCH" fill="rgb(242,138,119)" style="transform: none;">
        <g style="transform: none;">
            <path id="pEzCfoDJ3" d="M4961 7322 c-35 -19 -71 -72 -71 -105 0 -10 6 -33 14 -52 40 -95 210 -86 250 14 24 62 -3 118 -73 147 -45 19 -79 18 -120 -4z"></path>
            <path id="p4xw2dtDy" d="M3820 5823 c-93 -39 -133 -126 -95 -207 40 -83 151 -86 218 -7 35 42 39 126 7 136 -10 3 -36 26 -58 50 l-38 43 -34 -15z"></path>
            <path id="p9Ny9Wayj" d="M5063 4895 c-35 -15 -53 -41 -53 -80 0 -35 22 -41 67 -18 43 21 66 58 53 84 -14 25 -32 28 -67 14z"></path>
            <path id="phOMYxykk" d="M3798 4763 c-30 -34 -37 -58 -29 -96 5 -20 7 -38 4 -40 -10 -11 70 -67 97 -67 36 0 70 34 70 69 -1 41 -35 106 -68 129 -37 27 -54 28 -74 5z"></path>
        </g>
    </g>
    <g id="l6cRIBd8jmowdV2Z7ZSifeK" fill="rgb(227,179,118)" style="transform: none;">
        <g style="transform: none;">
            <path id="pjO7DgkWP" d="M4770 7825 c-370 -31 -759 -110 -978 -198 -213 -87 -382 -297 -413 -516 -6 -39 -8 -383 -5 -843 l4 -778 34 -39 c29 -35 65 -99 95 -171 7 -17 9 248 5 870 -3 677 -2 909 7 953 27 125 119 260 226 331 142 95 555 191 1005 235 574 56 1380 -24 1792 -179 112 -42 225 -146 284 -262 58 -115 56 -53 51 -1588 -2 -773 -7 -1412 -11 -1421 -6 -13 0 -18 24 -21 29 -4 32 -2 59 56 61 129 59 76 63 1541 l3 1340 -28 75 c-62 162 -175 299 -311 375 -174 97 -564 189 -976 230 -219 22 -723 28 -930 10z"></path>
            <path id="pOMxAb8hS" d="M5700 4226 c-25 -7 -85 -31 -135 -53 -163 -73 -185 -78 -340 -78 -153 0 -138 -4 -375 91 -77 30 -108 37 -165 38 -98 1 -146 -24 -248 -127 -56 -56 -102 -93 -142 -113 -55 -26 -69 -29 -160 -28 -85 0 -110 4 -170 28 -174 70 -285 88 -397 66 -141 -27 -230 -93 -310 -230 -27 -47 -66 -101 -85 -121 l-35 -37 60 -40 c33 -23 113 -71 178 -107 l118 -66 90 30 c77 25 140 41 343 86 20 5 19 9 -28 87 -55 90 -62 135 -29 168 12 12 33 20 53 20 38 0 85 -44 159 -151 26 -36 52 -70 60 -76 9 -7 40 -7 106 2 51 8 161 18 245 25 83 6 170 13 193 16 l41 5 -29 56 c-46 92 -34 173 27 173 27 0 64 -42 140 -157 l47 -72 267 -1 267 -1 24 58 c34 84 79 161 103 178 30 21 70 19 101 -6 34 -27 34 -66 1 -157 -14 -38 -25 -71 -25 -74 0 -2 24 -5 53 -7 28 -1 89 -6 135 -12 129 -15 298 -12 362 7 79 23 105 39 176 105 35 32 71 59 81 59 31 0 83 -38 83 -61 0 -39 -34 -93 -94 -150 l-60 -57 45 -12 c24 -7 91 -28 149 -46 118 -39 113 -40 212 24 57 36 58 38 50 72 -14 69 -5 185 23 283 31 110 30 133 -7 160 -43 32 -125 26 -239 -17 -52 -19 -119 -41 -149 -47 -119 -26 -225 14 -368 140 -125 109 -174 134 -277 137 -45 2 -99 -2 -125 -10z"></path>
            <path id="p1EttfWyrs" d="M4690 3489 c-261 -14 -547 -47 -692 -80 -42 -10 -48 -15 -66 -57 -11 -26 -23 -69 -27 -97 -9 -65 -36 -95 -86 -95 -54 0 -62 16 -57 115 4 82 4 85 -16 79 -130 -39 -181 -61 -217 -93 -37 -33 -41 -43 -54 -116 -13 -71 -21 -275 -11 -275 2 0 37 16 78 35 181 83 555 146 1053 176 252 15 979 6 1215 -15 399 -36 724 -102 873 -177 l37 -19 -1 142 c0 83 -5 157 -12 178 -41 117 -391 230 -857 275 -353 33 -797 43 -1160 24z"></path>
        </g>
    </g>
    <g id="l1bN88F8pATLMHTacwSomNM" fill="rgb(235,192,134)" style="transform: none;">
        <g style="transform: none;">
            <path id="pLITDQzAL" d="M4770 7825 c-370 -31 -759 -110 -978 -198 -213 -87 -382 -297 -413 -516 -6 -39 -8 -383 -5 -843 l4 -778 34 -39 c29 -35 65 -99 95 -171 7 -17 9 248 5 870 -5 979 -6 959 53 1078 75 148 169 221 368 287 394 129 966 193 1486 166 505 -27 1024 -125 1198 -226 42 -25 43 -25 43 -5 0 13 7 20 19 20 11 0 23 5 26 10 3 6 1 10 -6 10 -7 0 -2 9 11 20 13 11 27 20 32 20 20 0 -6 21 -67 55 -173 97 -563 189 -975 230 -219 22 -723 28 -930 10z"></path>
            <path id="pGY6RhiVa" d="M4690 3490 c-270 -16 -549 -48 -692 -81 -42 -10 -48 -15 -66 -57 -11 -26 -23 -69 -27 -97 -9 -65 -36 -95 -86 -95 -54 0 -62 16 -57 115 4 82 4 85 -16 79 -130 -39 -181 -61 -217 -93 -37 -33 -41 -43 -54 -116 -13 -71 -21 -275 -11 -275 2 0 37 16 78 35 177 81 551 145 1033 175 307 19 886 12 1253 -16 l87 -6 2 100 c2 77 -2 112 -17 151 -10 28 -18 53 -18 54 3 8 -17 55 -30 70 -14 16 -12 17 24 18 l39 1 -45 9 c-154 28 -875 46 -1180 29z"></path>
        </g>
    </g>
    <g id="l14muuueAfQZH3b4ZKmilv8" fill="rgb(239,205,153)" style="transform: none;">
        <g style="transform: none;">
            <path id="psAVwtQbh" d="M4770 7825 c-363 -29 -758 -109 -978 -198 -213 -87 -382 -297 -413 -516 -6 -39 -8 -383 -5 -843 l4 -778 34 -39 c29 -35 65 -99 95 -171 7 -17 9 248 5 870 -5 979 -6 959 53 1078 75 148 169 221 368 287 307 101 691 158 1172 174 127 4 194 9 150 10 -72 3 -76 4 -45 13 19 5 42 14 52 18 11 6 18 4 22 -6 5 -12 8 -13 19 -2 12 10 12 15 0 26 -14 15 -8 36 9 26 6 -4 8 3 6 17 -3 23 0 24 67 29 66 5 68 5 30 12 -62 12 -462 7 -645 -7z"></path>
            <path id="phcq8LUPZ" d="M1705 5663 c-110 -15 -241 -86 -318 -174 -89 -100 -134 -223 -172 -469 -31 -198 -64 -375 -105 -555 -52 -229 -58 -285 -36 -308 23 -22 48 -21 79 3 17 14 39 59 72 147 25 71 84 223 129 338 46 116 95 242 110 281 31 84 77 149 118 170 17 9 54 40 83 69 33 34 66 57 92 65 l41 13 -19 41 c-10 22 -19 57 -19 77 0 44 33 91 58 83 47 -15 64 -32 91 -89 35 -73 42 -79 116 -105 68 -23 95 -45 95 -75 0 -36 -20 -45 -100 -45 -131 0 -230 -34 -273 -92 l-21 -28 21 -27 c30 -42 95 -55 233 -49 128 6 172 16 220 49 58 39 74 70 78 151 8 144 -47 286 -147 387 -106 106 -275 162 -426 142z"></path>
            <path id="pMne2inZb" d="M7955 5350 c-66 -21 -131 -70 -165 -125 l-21 -34 60 -59 c68 -66 114 -151 133 -245 10 -48 18 -61 40 -73 37 -19 48 -43 48 -101 0 -32 -7 -59 -22 -83 -20 -31 -22 -46 -19 -145 1 -77 -2 -125 -13 -160 -8 -27 -14 -51 -12 -53 12 -11 101 51 166 117 125 126 180 263 180 448 0 156 -36 293 -109 414 -31 51 -45 65 -70 70 -18 4 -40 13 -49 22 -29 25 -82 27 -147 7z"></path>
            <path id="paxLp9h7f" d="M1572 4768 l-44 -122 22 -18 c50 -40 119 -3 169 92 37 70 36 76 -14 100 -25 12 -53 33 -62 46 -8 13 -18 24 -22 24 -3 0 -26 -55 -49 -122z"></path>
            <path id="pbqzwf5ZP" d="M2168 4812 l-56 -16 -7 -60 c-4 -34 -20 -101 -37 -151 -28 -83 -30 -97 -24 -185 7 -98 21 -166 38 -187 31 -39 78 9 103 103 31 119 69 516 49 513 -5 -1 -35 -9 -66 -17z"></path>
            <path id="pcRv9wslt" d="M1861 4738 c-8 -29 -24 -80 -37 -112 -13 -33 -22 -61 -20 -64 9 -8 88 -22 97 -17 25 16 79 168 79 224 0 19 -6 21 -53 21 l-53 0 -13 -52z"></path>
            <path id="pT8DJLPil" d="M5700 4226 c-25 -7 -85 -31 -135 -53 -163 -73 -185 -78 -340 -78 -153 0 -138 -4 -375 91 -77 30 -108 37 -165 38 -98 1 -146 -24 -248 -127 -56 -56 -102 -93 -142 -113 -55 -26 -69 -29 -160 -28 -85 0 -110 4 -170 28 -174 70 -285 88 -397 66 -141 -27 -230 -93 -310 -230 -27 -47 -66 -101 -85 -121 l-35 -37 60 -40 c33 -23 113 -71 178 -107 l118 -66 90 30 c77 25 140 41 343 86 20 5 19 9 -28 87 -55 90 -62 135 -29 168 12 12 33 20 53 20 38 0 85 -44 159 -151 26 -36 52 -70 60 -76 9 -7 40 -7 106 2 51 8 161 18 245 25 83 6 170 13 193 16 l41 5 -29 56 c-46 92 -34 173 27 173 27 0 64 -42 140 -157 l47 -72 267 -1 267 -1 24 58 c34 84 79 161 103 178 30 21 70 19 101 -6 34 -27 34 -66 1 -157 -14 -38 -25 -71 -25 -74 0 -2 21 -5 48 -6 26 -1 69 -5 95 -8 40 -5 51 -3 62 12 7 10 12 22 9 25 -6 10 74 30 98 24 29 -7 95 45 161 130 46 59 87 133 87 159 0 19 -196 184 -254 213 -61 31 -183 41 -256 19z"></path>
            <path id="pHZHyLuBX" d="M4690 3489 c-261 -14 -547 -47 -692 -80 -42 -10 -48 -15 -66 -57 -11 -26 -23 -69 -27 -97 -9 -65 -36 -95 -86 -95 -54 0 -62 16 -57 115 4 82 4 85 -16 79 -130 -39 -181 -61 -217 -93 -37 -33 -41 -43 -54 -116 -13 -71 -21 -275 -11 -275 2 0 37 16 78 35 94 43 221 76 419 109 336 56 654 77 1163 76 208 -1 381 2 384 5 3 3 -16 5 -42 5 -39 0 -49 4 -53 20 -3 11 -11 20 -18 20 -22 0 -28 33 -8 47 39 27 44 35 36 56 -4 12 -7 32 -6 45 1 16 -3 22 -13 18 -8 -3 -20 8 -30 30 -14 30 -15 37 -4 44 8 5 18 6 23 3 4 -3 7 1 6 8 -2 8 2 23 8 34 6 11 13 25 15 30 1 6 7 9 12 7 4 -1 14 2 22 8 7 7 26 11 41 10 15 -1 44 -1 63 1 19 1 -19 6 -85 9 -161 10 -594 9 -785 -1z"></path>
            <path id="pil0NTO3K" d="M4710 2924 c-25 -2 -117 -8 -205 -14 -373 -25 -797 -106 -927 -177 -51 -28 -83 -66 -74 -88 8 -23 105 -73 201 -105 531 -177 1876 -200 2619 -44 182 39 343 103 370 147 9 16 4 25 -32 57 -105 94 -400 164 -867 206 -168 15 -962 28 -1085 18z"></path>
        </g>
    </g>
    <g id="l2PR9lmUSzE5FSH8EVQ8P2A" fill="rgb(242,219,183)" style="transform: none;">
        <g style="transform: none;"></g>
    </g>
</svg>
